0
SECTION
2
HEADER
9
$INSUNITS
70
4
9
$ACADVER
1
AC1014
9
$HANDSEED
5
FFFF
0
ENDSEC
0
SECTION
2
TABLES
0
TABLE
2
VPORT
5
8
100
AcDbSymbolTable
0
ENDTAB
0
TABLE
2
LTYPE
5
5
100
AcDbSymbolTable
0
LTYPE
5
14
100
AcDbSymbolTableRecord
100
AcDbLinetypeTableRecord
2
BYBLOCK
70
0
0
LTYPE
5
15
100
AcDbSymbolTableRecord
100
AcDbLinetypeTableRecord
2
BYLAYER
70
0
0
ENDTAB
0
TABLE
2
LAYER
5
2
100
AcDbSymbolTable
70
2
0
LAYER
5
50
100
AcDbSymbolTableRecord
100
AcDbLayerTableRecord
2
0
70
0
6
CONTINUOUS
0
ENDTAB
0
TABLE
2
STYLE
5
3
100
AcDbSymbolTable
70
1
0
STYLE
5
11
100
AcDbSymbolTableRecord
100
AcDbTextStyleTableRecord
2
STANDARD
70
0
0
ENDTAB
0
TABLE
2
VIEW
5
6
100
AcDbSymbolTable
70
0
0
ENDTAB
0
TABLE
2
UCS
5
7
100
AcDbSymbolTable
70
0
0
ENDTAB
0
TABLE
2
APPID
5
9
100
AcDbSymbolTable
70
2
0
APPID
5
12
100
AcDbSymbolTableRecord
100
AcDbRegAppTableRecord
2
ACAD
70
0
0
ENDTAB
0
TABLE
2
DIMSTYLE
5
A
100
AcDbSymbolTable
70
1
0
ENDTAB
0
TABLE
2
BLOCK_RECORD
5
1
100
AcDbSymbolTable
70
1
0
BLOCK_RECORD
5
1F
100
AcDbSymbolTableRecord
100
AcDbBlockTableRecord
2
*MODEL_SPACE
0
BLOCK_RECORD
5
1B
100
AcDbSymbolTableRecord
100
AcDbBlockTableRecord
2
*PAPER_SPACE
0
ENDTAB
0
ENDSEC
0
SECTION
2
BLOCKS
0
BLOCK
5
20
100
AcDbEntity
100
AcDbBlockBegin
2
*MODEL_SPACE
0
ENDBLK
5
21
100
AcDbEntity
100
AcDbBlockEnd
0
BLOCK
5
1C
100
AcDbEntity
100
AcDbBlockBegin
2
*PAPER_SPACE
0
ENDBLK
5
1D
100
AcDbEntity
100
AcDbBlockEnd
0
ENDSEC
0
SECTION
2
ENTITIES
0
LWPOLYLINE
5
100
100
AcDbEntity
8
OUTER_PROFILES
100
AcDbPolyline
90
8
70
1
43
0.0
10
164.19980798901969
20
25.399999999999999
10
172.00168080610624
20
26.116407864998735
42
-1.1180339887498953
10
172.00168080610626
20
-0.71640786499874254
10
164.19980798901969
20
0
10
1.1446161308230793e-15
20
0
42
-0.41421356237309309
10
-6.231000000000007
20
6.2309999999999999
10
-6.2310000000000088
20
19.169
42
-0.41421356237309315
10
0
20
25.399999999999999
0
CIRCLE
5
101
100
AcDbEntity
8
INTERIOR_PROFILES
100
AcDbCircle
10
5.7690000000000019
20
22.699999999999999
30
0
40
1.6999999999999993
210
-0
220
0
230
1
0
CIRCLE
5
102
100
AcDbEntity
8
INTERIOR_PROFILES
100
AcDbCircle
10
91.726499999999987
20
2.7000000000000046
30
0
40
1.6999999999999993
210
-0
220
0
230
1
0
CIRCLE
5
103
100
AcDbEntity
8
INTERIOR_PROFILES
100
AcDbCircle
10
40.23566666666666
20
2.7000000000000046
30
0
40
1.7000000000000015
210
-0
220
0
230
1
0
CIRCLE
5
104
100
AcDbEntity
8
INTERIOR_PROFILES
100
AcDbCircle
10
163.50168080610626
20
12.699999999999999
30
0
40
1.6999999999999993
210
0
220
-0
230
1
0
LWPOLYLINE
5
105
100
AcDbEntity
8
INTERIOR_PROFILES
100
AcDbPolyline
90
4
70
1
43
0.0
10
-4.2956070292139614
20
11.702088468956187
10
1.0734733012128395
20
11.702088468956187
10
1.0734733012128395
20
13.912886252073108
10
-4.2956070292139614
20
13.912886252073108
0
CIRCLE
5
106
100
AcDbEntity
8
INTERIOR_PROFILES
100
AcDbCircle
10
173.50168080610626
20
22.699999999999999
30
0
40
1.6999999999999993
210
0
220
-0
230
1
0
CIRCLE
5
107
100
AcDbEntity
8
INTERIOR_PROFILES
100
AcDbCircle
10
57.402333333333324
20
2.7000000000000046
30
0
40
1.7000000000000015
210
-0
220
0
230
1
0
CIRCLE
5
108
100
AcDbEntity
8
INTERIOR_PROFILES
100
AcDbCircle
10
173.50168080610626
20
2.7000000000000046
30
0
40
1.6999999999999993
210
0
220
-0
230
1
0
CIRCLE
5
109
100
AcDbEntity
8
INTERIOR_PROFILES
100
AcDbCircle
10
173.50168080610626
20
12.699999999999999
30
0
40
4.0000000000000018
210
0
220
-0
230
1
0
CIRCLE
5
110
100
AcDbEntity
8
INTERIOR_PROFILES
100
AcDbCircle
10
108.88399999999999
20
2.7000000000000046
30
0
40
1.6999999999999993
210
-0
220
0
230
1
0
CIRCLE
5
111
100
AcDbEntity
8
INTERIOR_PROFILES
100
AcDbCircle
10
74.568999999999988
20
22.699999999999999
30
0
40
1.6999999999999993
210
-0
220
0
230
1
0
CIRCLE
5
112
100
AcDbEntity
8
INTERIOR_PROFILES
100
AcDbCircle
10
57.402333333333324
20
22.699999999999999
30
0
40
1.6999999999999993
210
-0
220
0
230
1
0
CIRCLE
5
113
100
AcDbEntity
8
INTERIOR_PROFILES
100
AcDbCircle
10
23.068999999999988
20
2.7000000000000046
30
0
40
1.7000000000000015
210
-0
220
0
230
1
0
LWPOLYLINE
5
114
100
AcDbEntity
8
INTERIOR_PROFILES
100
AcDbPolyline
90
4
70
1
43
0.0
10
-4.363055550776096
20
17.13563787384745
10
1.0934753260741736
20
17.13563787384745
10
1.0934753260741736
20
19.174341717945357
10
-4.363055550776096
20
19.174341717945357
0
CIRCLE
5
115
100
AcDbEntity
8
INTERIOR_PROFILES
100
AcDbCircle
10
23.068999999999988
20
22.699999999999999
30
0
40
1.6999999999999993
210
-0
220
0
230
1
0
CIRCLE
5
116
100
AcDbEntity
8
INTERIOR_PROFILES
100
AcDbCircle
10
74.568999999999988
20
2.7000000000000046
30
0
40
1.6999999999999993
210
-0
220
0
230
1
0
CIRCLE
5
117
100
AcDbEntity
8
INTERIOR_PROFILES
100
AcDbCircle
10
183.50168080610626
20
12.700000000000003
30
0
40
1.7000000000000015
210
0
220
-0
230
1
0
CIRCLE
5
118
100
AcDbEntity
8
INTERIOR_PROFILES
100
AcDbCircle
10
5.7690000000000019
20
2.6999999999999913
30
0
40
1.7000000000000015
210
-0
220
0
230
1
0
CIRCLE
5
119
100
AcDbEntity
8
INTERIOR_PROFILES
100
AcDbCircle
10
126.76900000000001
20
22.699999999999999
30
0
40
1.6999999999999993
210
-0
220
0
230
1
0
CIRCLE
5
120
100
AcDbEntity
8
INTERIOR_PROFILES
100
AcDbCircle
10
108.88399999999999
20
22.699999999999999
30
0
40
1.6999999999999993
210
-0
220
0
230
1
0
CIRCLE
5
121
100
AcDbEntity
8
INTERIOR_PROFILES
100
AcDbCircle
10
126.76900000000001
20
2.7000000000000002
30
0
40
1.7000000000000015
210
-0
220
0
230
1
0
CIRCLE
5
122
100
AcDbEntity
8
INTERIOR_PROFILES
100
AcDbCircle
10
91.726499999999987
20
22.699999999999999
30
0
40
1.6999999999999993
210
-0
220
0
230
1
0
CIRCLE
5
123
100
AcDbEntity
8
INTERIOR_PROFILES
100
AcDbCircle
10
40.23566666666666
20
22.699999999999999
30
0
40
1.6999999999999993
210
-0
220
0
230
1
0
LINE
5
124
100
AcDbEntity
8
BEND
100
AcDbLine
10
141.00984040305312
20
25.399999999999999
30
2.1094237467877974e-14
11
141.00984040305312
21
-4.4408920985006262e-15
31
2.1094237467877974e-14
0
LINE
5
125
100
AcDbEntity
8
BEND_EXTENT
100
AcDbLine
10
137.41899999999998
20
-4.4408920985006262e-15
30
1.7763568394002505e-14
11
137.41899999999998
21
25.399999999999999
31
1.7763568394002505e-14
0
LINE
5
126
100
AcDbEntity
8
BEND_EXTENT
100
AcDbLine
10
144.60068080610625
20
0
30
2.2204460492503131e-14
11
144.60068080610625
21
25.399999999999999
31
2.2204460492503131e-14
0
ENDSEC
0
SECTION
2
OBJECTS
0
DICTIONARY
5
C
100
AcDbDictionary
3
ACAD_GROUP
350
D
3
ACAD_MLINESTYLE
350
17
0
DICTIONARY
5
D
100
AcDbDictionary
0
DICTIONARY
5
1A
330
C
100
AcDbDictionary
0
DICTIONARY
5
17
100
AcDbDictionary
0
ENDSEC
0
EOF
