0
SECTION
2
HEADER
9
$INSUNITS
70
4
9
$ACADVER
1
AC1014
9
$HANDSEED
5
FFFF
0
ENDSEC
0
SECTION
2
TABLES
0
TABLE
2
VPORT
5
8
100
AcDbSymbolTable
0
ENDTAB
0
TABLE
2
LTYPE
5
5
100
AcDbSymbolTable
0
LTYPE
5
14
100
AcDbSymbolTableRecord
100
AcDbLinetypeTableRecord
2
BYBLOCK
70
0
0
LTYPE
5
15
100
AcDbSymbolTableRecord
100
AcDbLinetypeTableRecord
2
BYLAYER
70
0
0
ENDTAB
0
TABLE
2
LAYER
5
2
100
AcDbSymbolTable
70
2
0
LAYER
5
50
100
AcDbSymbolTableRecord
100
AcDbLayerTableRecord
2
0
70
0
6
CONTINUOUS
0
ENDTAB
0
TABLE
2
STYLE
5
3
100
AcDbSymbolTable
70
1
0
STYLE
5
11
100
AcDbSymbolTableRecord
100
AcDbTextStyleTableRecord
2
STANDARD
70
0
0
ENDTAB
0
TABLE
2
VIEW
5
6
100
AcDbSymbolTable
70
0
0
ENDTAB
0
TABLE
2
UCS
5
7
100
AcDbSymbolTable
70
0
0
ENDTAB
0
TABLE
2
APPID
5
9
100
AcDbSymbolTable
70
2
0
APPID
5
12
100
AcDbSymbolTableRecord
100
AcDbRegAppTableRecord
2
ACAD
70
0
0
ENDTAB
0
TABLE
2
DIMSTYLE
5
A
100
AcDbSymbolTable
70
1
0
ENDTAB
0
TABLE
2
BLOCK_RECORD
5
1
100
AcDbSymbolTable
70
1
0
BLOCK_RECORD
5
1F
100
AcDbSymbolTableRecord
100
AcDbBlockTableRecord
2
*MODEL_SPACE
0
BLOCK_RECORD
5
1B
100
AcDbSymbolTableRecord
100
AcDbBlockTableRecord
2
*PAPER_SPACE
0
ENDTAB
0
ENDSEC
0
SECTION
2
BLOCKS
0
BLOCK
5
20
100
AcDbEntity
100
AcDbBlockBegin
2
*MODEL_SPACE
0
ENDBLK
5
21
100
AcDbEntity
100
AcDbBlockEnd
0
BLOCK
5
1C
100
AcDbEntity
100
AcDbBlockBegin
2
*PAPER_SPACE
0
ENDBLK
5
1D
100
AcDbEntity
100
AcDbBlockEnd
0
ENDSEC
0
SECTION
2
ENTITIES
0
LWPOLYLINE
5
100
100
AcDbEntity
8
0
100
AcDbPolyline
90
16
70
1
43
0.0
10
-25.511427558544845
20
-57.986999999999981
42
-0.4142135623730937
10
-23.474427558544846
20
-55.949999999999982
10
-19.784028440907086
20
-55.949999999999989
42
0.41421356237309509
10
-18.023028440907083
20
-54.188999999999993
10
-18.023028440907083
20
54.188999999999972
42
0.41421356237309509
10
-19.784028440907086
20
55.949999999999974
10
-23.474427558544768
20
55.94999999999996
42
-0.41421356237309886
10
-25.511427558544781
20
57.986999999999966
10
-25.511427558544764
20
72.962999999999994
42
-0.41421356237309886
10
-23.474427558544761
20
74.999999999999986
10
-1.0014275585447496
20
74.999999999999943
10
25.511427558544881
20
46.272138801515851
10
25.511427558544824
20
-46.272138801515901
10
-1.0014275585448384
20
-75
10
-23.474427558544857
20
-74.999999999999972
42
-0.41421356237309886
10
-25.511427558544852
20
-72.962999999999994
0
CIRCLE
5
101
100
AcDbEntity
8
0
100
AcDbCircle
10
-7.1547279997259672
20
65.474999999999994
30
0
40
3.2000000000000006
210
0
220
0
230
1
0
LWPOLYLINE
5
102
100
AcDbEntity
8
0
100
AcDbPolyline
90
8
70
1
43
0.0
10
7.6724275585448165
20
-6.3500000000000068
10
-0.18402844090707582
20
-6.3500000000000068
42
0.41421356237309509
10
-5.3230284409070805
20
-11.489000000000008
10
-5.3230284409070725
20
-51.295217286979423
42
0.68276886491717481
10
1.2295731426256218
20
-53.856811487763537
10
10.427638000044004
20
-43.890297909667538
42
0.18851735475771386
10
12.81142755854483
20
-37.79252362869056
10
12.811427558544818
20
-11.489000000000004
42
0.41421356237309492
0
CIRCLE
5
103
100
AcDbEntity
8
0
100
AcDbCircle
10
-7.1547279997259672
20
-65.474999999999994
30
0
40
3.2000000000000006
210
0
220
0
230
1
0
LWPOLYLINE
5
104
100
AcDbEntity
8
0
100
AcDbPolyline
90
8
70
1
43
0.0
10
-0.18402844090707582
20
6.3499999999999659
10
7.6724275585448343
20
6.3499999999999588
42
0.41421356237309448
10
12.81142755854483
20
11.488999999999949
10
12.811427558544883
20
37.792523628690489
42
0.18851735475771345
10
10.427638000044075
20
43.890297909667453
10
1.2295731426256844
20
53.856811487763494
42
0.68276886491717415
10
-5.3230284409070094
20
51.295217286979387
10
-5.3230284409070672
20
11.488999999999974
42
0.41421356237309492
0
ENDSEC
0
SECTION
2
OBJECTS
0
DICTIONARY
5
C
100
AcDbDictionary
3
ACAD_GROUP
350
D
3
ACAD_MLINESTYLE
350
17
0
DICTIONARY
5
D
100
AcDbDictionary
0
DICTIONARY
5
1A
330
C
100
AcDbDictionary
0
DICTIONARY
5
17
100
AcDbDictionary
0
ENDSEC
0
EOF
