0
SECTION
2
HEADER
9
$INSUNITS
70
4
9
$ACADVER
1
AC1014
9
$HANDSEED
5
FFFF
0
ENDSEC
0
SECTION
2
TABLES
0
TABLE
2
VPORT
5
8
100
AcDbSymbolTable
0
ENDTAB
0
TABLE
2
LTYPE
5
5
100
AcDbSymbolTable
0
LTYPE
5
14
100
AcDbSymbolTableRecord
100
AcDbLinetypeTableRecord
2
BYBLOCK
70
0
0
LTYPE
5
15
100
AcDbSymbolTableRecord
100
AcDbLinetypeTableRecord
2
BYLAYER
70
0
0
ENDTAB
0
TABLE
2
LAYER
5
2
100
AcDbSymbolTable
70
2
0
LAYER
5
50
100
AcDbSymbolTableRecord
100
AcDbLayerTableRecord
2
0
70
0
6
CONTINUOUS
0
ENDTAB
0
TABLE
2
STYLE
5
3
100
AcDbSymbolTable
70
1
0
STYLE
5
11
100
AcDbSymbolTableRecord
100
AcDbTextStyleTableRecord
2
STANDARD
70
0
0
ENDTAB
0
TABLE
2
VIEW
5
6
100
AcDbSymbolTable
70
0
0
ENDTAB
0
TABLE
2
UCS
5
7
100
AcDbSymbolTable
70
0
0
ENDTAB
0
TABLE
2
APPID
5
9
100
AcDbSymbolTable
70
2
0
APPID
5
12
100
AcDbSymbolTableRecord
100
AcDbRegAppTableRecord
2
ACAD
70
0
0
ENDTAB
0
TABLE
2
DIMSTYLE
5
A
100
AcDbSymbolTable
70
1
0
ENDTAB
0
TABLE
2
BLOCK_RECORD
5
1
100
AcDbSymbolTable
70
1
0
BLOCK_RECORD
5
1F
100
AcDbSymbolTableRecord
100
AcDbBlockTableRecord
2
*MODEL_SPACE
0
BLOCK_RECORD
5
1B
100
AcDbSymbolTableRecord
100
AcDbBlockTableRecord
2
*PAPER_SPACE
0
ENDTAB
0
ENDSEC
0
SECTION
2
BLOCKS
0
BLOCK
5
20
100
AcDbEntity
100
AcDbBlockBegin
2
*MODEL_SPACE
0
ENDBLK
5
21
100
AcDbEntity
100
AcDbBlockEnd
0
BLOCK
5
1C
100
AcDbEntity
100
AcDbBlockBegin
2
*PAPER_SPACE
0
ENDBLK
5
1D
100
AcDbEntity
100
AcDbBlockEnd
0
ENDSEC
0
SECTION
2
ENTITIES
0
LINE
5
100
100
AcDbEntity
8
OUTER_PROFILES
100
AcDbLine
10
0
20
0
30
0
11
95.737787204070969
21
9.7699626167013763e-14
31
0
0
ARC
5
101
100
AcDbEntity
8
OUTER_PROFILES
100
AcDbCircle
10
95.737787204070983
20
2.7000000000000934
30
0
40
2.6999999999999957
210
0
220
0
230
1
100
AcDbArc
50
-90.000000000000313
51
0
0
LINE
5
102
100
AcDbEntity
8
OUTER_PROFILES
100
AcDbLine
10
98.437787204070986
20
2.7000000000001005
30
0
11
98.437787204070943
21
47.003495847818577
31
0
0
ARC
5
103
100
AcDbEntity
8
OUTER_PROFILES
100
AcDbCircle
10
95.737787204070941
20
47.003495847818577
30
0
40
2.6999999999999957
210
0
220
-0
230
1
100
AcDbArc
50
0
51
90
0
LINE
5
104
100
AcDbEntity
8
OUTER_PROFILES
100
AcDbLine
10
95.737787204070941
20
49.703495847818573
30
0
11
7.1054273576010019e-14
21
49.703495847818473
31
0
0
SPLINE
5
105
100
AcDbEntity
8
OUTER_PROFILES
100
AcDbSpline
70
0
71
3
72
11
73
7
74
0
42
0.000000001
43
0.0000000001
44
0.0000000001
40
0
40
0
40
0
40
0
40
0.049826660044426242
40
0.049826660044426242
40
0.049826660044426242
40
0.28642346592069112
40
0.28642346592069112
40
0.28642346592069112
40
0.28642346592069112
10
6.9944050551384862e-14
20
49.703495847818473
30
0
10
-0.11833810810621459
20
49.679583495620264
30
0
10
-0.23624428869959635
20
49.653964391359622
30
0
10
-0.3538724865325682
20
49.626542620767225
30
0
10
-0.91241796928113184
20
49.496333143996161
30
0
10
-1.46708337167747
20
49.323408042666514
30
0
10
-2.0140166687140368
20
49.110492136941211
30
0
0
SPLINE
5
106
100
AcDbEntity
8
OUTER_PROFILES
100
AcDbSpline
70
0
71
3
72
8
73
4
74
0
42
0.000000001
43
0.0000000001
44
0.0000000001
40
2.883916267063642
40
2.883916267063642
40
2.883916267063642
40
2.883916267063642
40
2.9381367021067426
40
2.9381367021067426
40
2.9381367021067426
40
2.9381367021067426
10
-2.014016668714036
20
49.110492136941204
30
0
10
-2.1426237890539026
20
49.060426614036949
30
0
10
-2.2694225657217992
20
49.008766826069696
30
0
10
-2.3938936020353507
20
48.956052514113608
30
0
0
ARC
5
107
100
AcDbEntity
8
OUTER_PROFILES
100
AcDbCircle
10
4.9561064131111054
20
24.85174792390934
30
0
40
25.19999999999991
210
0
220
0
230
1
100
AcDbArc
50
106.95776333600723
51
126.40352957770095
0
ARC
5
108
100
AcDbEntity
8
OUTER_PROFILES
100
AcDbCircle
10
-8.218893602035342
20
42.719578642854742
30
0
40
2.999999999999976
210
0
220
0
230
1
100
AcDbArc
50
126.40352957770082
51
180
0
LINE
5
109
100
AcDbEntity
8
OUTER_PROFILES
100
AcDbLine
10
-11.218893602035344
20
42.719578642854742
30
0
11
-11.218893602035367
21
6.9839172049637543
31
0
0
ARC
5
110
100
AcDbEntity
8
OUTER_PROFILES
100
AcDbCircle
10
-8.2188936020353669
20
6.9839172049637543
30
0
40
3.0000000000000004
210
0
220
0
230
1
100
AcDbArc
50
180
51
233.59647042229915
0
ARC
5
111
100
AcDbEntity
8
OUTER_PROFILES
100
AcDbCircle
10
4.9561064131111054
20
24.85174792390934
30
0
40
25.200000000000117
210
0
220
0
230
1
100
AcDbArc
50
233.59647042229923
51
253.0422366639929
0
SPLINE
5
112
100
AcDbEntity
8
OUTER_PROFILES
100
AcDbSpline
70
0
71
3
72
8
73
4
74
0
42
0.000000001
43
0.0000000001
44
0.0000000001
40
1.0043118910908444
40
1.0043118910908444
40
1.0043118910908444
40
1.0043118910908444
40
1.0585323261339401
40
1.0585323261339401
40
1.0585323261339401
40
1.0585323261339401
10
-2.393893602035353
20
0.74744333370485805
30
0
10
-2.2694225657218139
20
0.69472902174877227
30
0
10
-2.1426237890539266
20
0.64306923378152803
30
0
10
-2.0140166687140724
20
0.59300371087727122
30
0
0
SPLINE
5
113
100
AcDbEntity
8
OUTER_PROFILES
100
AcDbSpline
70
0
71
3
72
11
73
7
74
0
42
0.000000001
43
0.0000000001
44
0.0000000001
40
0
40
0
40
0
40
0
40
0.23667529763713538
40
0.23667529763713538
40
0.23667529763713538
40
0.28650862674740896
40
0.28650862674740896
40
0.28650862674740896
40
0.28650862674740896
10
-2.0140166687140737
20
0.59300371087726234
30
0
10
-1.4670742359240629
20
0.38008424869045321
30
0
10
-0.91248097651527305
20
0.20717739222146037
30
0
10
-0.35387248653260484
20
0.0769532270512574
30
0
10
-0.23625429400040865
20
0.049533788918809663
30
0
10
-0.11834547207376978
20
0.023913840220854965
30
0
10
-1.6653345369377348e-15
20
0
30
0
0
LWPOLYLINE
5
114
100
AcDbEntity
8
INTERIOR_PROFILES
100
AcDbPolyline
90
8
70
1
43
0.0
10
92.437787204070958
20
7.1733778701000883
10
92.437787204070929
20
42.530117977718575
42
0.41421356237309509
10
89.264409333970917
20
45.703495847818573
10
13.611165074170902
20
45.703495847818488
42
0.41421356237309481
10
10.437787204070908
20
42.53011797771849
10
10.437787204070943
20
7.1733778701000128
42
0.41421356237309481
10
13.611165074170941
20
4.0000000000000213
10
89.26440933397096
20
4.0000000000000835
42
0.41421356237309509
0
CIRCLE
5
115
100
AcDbEntity
8
INTERIOR_PROFILES
100
AcDbCircle
10
5.2188936020353633
20
10.003536777873485
30
0
40
1.7000000000000015
210
0
220
0
230
-1
0
CIRCLE
5
116
100
AcDbEntity
8
INTERIOR_PROFILES
100
AcDbCircle
10
-94.437787204070958
20
4.0000000000000835
30
0
40
1.6999999999999948
210
0
220
0
230
-1
0
CIRCLE
5
117
100
AcDbEntity
8
INTERIOR_PROFILES
100
AcDbCircle
10
-8.4377872040709061
20
45.703495847818502
30
0
40
1.6999999999999993
210
0
220
0
230
-1
0
CIRCLE
5
118
100
AcDbEntity
8
INTERIOR_PROFILES
100
AcDbCircle
10
-8.4377872040709416
20
4.0000000000000124
30
0
40
1.6999999999999993
210
0
220
0
230
-1
0
CIRCLE
5
119
100
AcDbEntity
8
INTERIOR_PROFILES
100
AcDbCircle
10
5.2188936020353367
20
39.699959085250214
30
0
40
1.6999999999999993
210
0
220
0
230
-1
0
CIRCLE
5
120
100
AcDbEntity
8
INTERIOR_PROFILES
100
AcDbCircle
10
-94.437787204070929
20
45.703495847818573
30
0
40
1.6999999999999993
210
0
220
0
230
-1
0
LINE
5
121
100
AcDbEntity
8
BEND
100
AcDbLine
10
1.1969468010177586
20
49.703495847818495
30
-5.8655139713921606e-15
11
1.1969468010177586
21
8.8817841970012523e-15
31
7.7715611723760958e-15
0
LINE
5
122
100
AcDbEntity
8
BEND_EXTENT
100
AcDbLine
10
-2.3938936020353587
20
0.74744333370485805
30
-7.7715611723760958e-15
11
-2.3938936020353587
21
48.956052514113608
31
1.1102230246251556e-15
0
LINE
5
123
100
AcDbEntity
8
BEND_EXTENT
100
AcDbLine
10
4.787787204070904
20
8.8817841970012523e-15
30
1.1102230246251581e-15
11
4.7877872040709217
21
49.703495847818495
31
1.1102230246251581e-15
0
ENDSEC
0
SECTION
2
OBJECTS
0
DICTIONARY
5
C
100
AcDbDictionary
3
ACAD_GROUP
350
D
3
ACAD_MLINESTYLE
350
17
0
DICTIONARY
5
D
100
AcDbDictionary
0
DICTIONARY
5
1A
330
C
100
AcDbDictionary
0
DICTIONARY
5
17
100
AcDbDictionary
0
ENDSEC
0
EOF
