0
SECTION
2
HEADER
9
$INSUNITS
70
4
9
$ACADVER
1
AC1014
9
$HANDSEED
5
FFFF
0
ENDSEC
0
SECTION
2
TABLES
0
TABLE
2
VPORT
5
8
100
AcDbSymbolTable
0
ENDTAB
0
TABLE
2
LTYPE
5
5
100
AcDbSymbolTable
0
LTYPE
5
14
100
AcDbSymbolTableRecord
100
AcDbLinetypeTableRecord
2
BYBLOCK
70
0
0
LTYPE
5
15
100
AcDbSymbolTableRecord
100
AcDbLinetypeTableRecord
2
BYLAYER
70
0
0
ENDTAB
0
TABLE
2
LAYER
5
2
100
AcDbSymbolTable
70
2
0
LAYER
5
50
100
AcDbSymbolTableRecord
100
AcDbLayerTableRecord
2
0
70
0
6
CONTINUOUS
0
ENDTAB
0
TABLE
2
STYLE
5
3
100
AcDbSymbolTable
70
1
0
STYLE
5
11
100
AcDbSymbolTableRecord
100
AcDbTextStyleTableRecord
2
STANDARD
70
0
0
ENDTAB
0
TABLE
2
VIEW
5
6
100
AcDbSymbolTable
70
0
0
ENDTAB
0
TABLE
2
UCS
5
7
100
AcDbSymbolTable
70
0
0
ENDTAB
0
TABLE
2
APPID
5
9
100
AcDbSymbolTable
70
2
0
APPID
5
12
100
AcDbSymbolTableRecord
100
AcDbRegAppTableRecord
2
ACAD
70
0
0
ENDTAB
0
TABLE
2
DIMSTYLE
5
A
100
AcDbSymbolTable
70
1
0
ENDTAB
0
TABLE
2
BLOCK_RECORD
5
1
100
AcDbSymbolTable
70
1
0
BLOCK_RECORD
5
1F
100
AcDbSymbolTableRecord
100
AcDbBlockTableRecord
2
*MODEL_SPACE
0
BLOCK_RECORD
5
1B
100
AcDbSymbolTableRecord
100
AcDbBlockTableRecord
2
*PAPER_SPACE
0
ENDTAB
0
ENDSEC
0
SECTION
2
BLOCKS
0
BLOCK
5
20
100
AcDbEntity
100
AcDbBlockBegin
2
*MODEL_SPACE
0
ENDBLK
5
21
100
AcDbEntity
100
AcDbBlockEnd
0
BLOCK
5
1C
100
AcDbEntity
100
AcDbBlockBegin
2
*PAPER_SPACE
0
ENDBLK
5
1D
100
AcDbEntity
100
AcDbBlockEnd
0
ENDSEC
0
SECTION
2
ENTITIES
0
LWPOLYLINE
5
100
100
AcDbEntity
8
0
100
AcDbPolyline
90
4
70
1
43
0.0
10
-53.200000000000045
20
107.00000000000099
10
-53.200000000000038
20
77.000000000000995
42
0.99999999999999989
10
-46.79999999999994
20
77.000000000000995
10
-46.80000000000004
20
107.00000000000099
42
0.99999999999999989
0
CIRCLE
5
101
100
AcDbEntity
8
0
100
AcDbCircle
10
2.6734170432973769e-12
20
-134.99999999999997
30
0
40
3.5
210
0
220
0
230
1
0
CIRCLE
5
102
100
AcDbEntity
8
0
100
AcDbCircle
10
-116.91342951089791
20
-67.500000000002302
30
0
40
3.499999999999996
210
0
220
0
230
1
0
CIRCLE
5
103
100
AcDbEntity
8
0
100
AcDbCircle
10
116.9134295109005
20
-67.499999999997712
30
0
40
3.499999999999996
210
0
220
0
230
1
0
CIRCLE
5
104
100
AcDbEntity
8
0
100
AcDbCircle
10
87.499999999998892
20
55.000000000002828
30
0
40
3.2000000000000028
210
0
220
0
230
1
0
CIRCLE
5
105
100
AcDbEntity
8
0
100
AcDbCircle
10
-52.500000000001123
20
54.999999999999993
30
0
40
3.2000000000000028
210
0
220
0
230
1
0
CIRCLE
5
106
100
AcDbEntity
8
0
100
AcDbCircle
10
-137.11000000000064
20
-18.000000000000956
30
0
40
3.2000000000000028
210
0
220
0
230
1
0
CIRCLE
5
107
100
AcDbEntity
8
0
100
AcDbCircle
10
-2.6911806116913795e-12
20
135
30
0
40
3.5000000000000009
210
0
220
0
230
1
0
CIRCLE
5
108
100
AcDbEntity
8
0
100
AcDbCircle
10
-17.500000000001108
20
55.000000000000774
30
0
40
3.1999999999999984
210
0
220
0
230
1
0
CIRCLE
5
109
100
AcDbEntity
8
0
100
AcDbCircle
10
116.91342951089787
20
67.500000000002217
30
0
40
3.499999999999996
210
0
220
0
230
1
0
CIRCLE
5
110
100
AcDbEntity
8
0
100
AcDbCircle
10
87.5
20
-55.000000000000071
30
0
40
3.2000000000000028
210
0
220
0
230
1
0
CIRCLE
5
111
100
AcDbEntity
8
0
100
AcDbCircle
10
-87.5
20
-55.000000000000071
30
0
40
3.2000000000000028
210
0
220
0
230
1
0
LWPOLYLINE
5
112
100
AcDbEntity
8
0
100
AcDbPolyline
90
4
70
1
43
0.0
10
-46.799999999997716
20
-107.00000000000095
10
-46.799999999998512
20
-77.000000000000966
42
0.99999999999999989
10
-53.19999999999834
20
-77.000000000001066
10
-53.199999999997935
20
-107.00000000000109
42
0.99999999999999989
0
LWPOLYLINE
5
113
100
AcDbEntity
8
0
100
AcDbPolyline
90
4
70
1
43
0.0
10
3.1999999999988304
20
77.000000000000995
10
3.1999999999984663
20
107.00000000000097
42
0.99999999999999989
10
-3.2000000000015349
20
107.00000000000101
10
-3.2000000000011708
20
77.000000000001009
42
0.99999999999999989
0
LWPOLYLINE
5
114
100
AcDbEntity
8
0
100
AcDbPolyline
90
4
70
1
43
0.0
10
46.799999999999258
20
-77.000000000000469
42
-0.99999999999999989
10
53.199999999999299
20
-77.00000000000054
10
53.199999999998944
20
-107.00000000000054
42
-0.99999999999999989
10
46.79999999999901
20
-107.00000000000047
0
CIRCLE
5
115
100
AcDbEntity
8
0
100
AcDbCircle
10
-17.5
20
-55.000000000000149
30
0
40
3.1999999999999984
210
0
220
0
230
1
0
CIRCLE
5
116
100
AcDbEntity
8
0
100
AcDbCircle
10
17.5
20
-55.000000000000149
30
0
40
3.1999999999999984
210
0
220
0
230
1
0
CIRCLE
5
117
100
AcDbEntity
8
0
100
AcDbCircle
10
137.11000000000121
20
-17.999999999996852
30
0
40
3.2000000000000028
210
0
220
0
230
1
0
CIRCLE
5
118
100
AcDbEntity
8
0
100
AcDbCircle
10
52.499999999998877
20
55.000000000002103
30
0
40
3.2000000000000028
210
0
220
0
230
1
0
CIRCLE
5
119
100
AcDbEntity
8
0
100
AcDbCircle
10
-87.500000000001123
20
54.999999999999289
30
0
40
3.2000000000000028
210
0
220
0
230
1
0
CIRCLE
5
120
100
AcDbEntity
8
0
100
AcDbCircle
10
-137.11000000000087
20
17.999999999999442
30
0
40
3.2000000000000028
210
0
220
0
230
1
0
CIRCLE
5
121
100
AcDbEntity
8
0
100
AcDbCircle
10
-116.91342951090057
20
67.499999999997712
30
0
40
3.499999999999996
210
0
220
0
230
1
0
CIRCLE
5
122
100
AcDbEntity
8
0
100
AcDbCircle
10
17.499999999998892
20
55.000000000001485
30
0
40
3.1999999999999984
210
0
220
0
230
1
0
CIRCLE
5
123
100
AcDbEntity
8
0
100
AcDbCircle
10
137.11000000000035
20
18.000000000003539
30
0
40
3.2000000000000028
210
0
220
0
230
1
0
CIRCLE
5
124
100
AcDbEntity
8
0
100
AcDbCircle
10
52.5
20
-55.000000000000064
30
0
40
3.2000000000000028
210
0
220
0
230
1
0
CIRCLE
5
125
100
AcDbEntity
8
0
100
AcDbCircle
10
-52.5
20
-55.000000000000064
30
0
40
3.2000000000000028
210
0
220
0
230
1
0
LWPOLYLINE
5
126
100
AcDbEntity
8
0
100
AcDbPolyline
90
4
70
1
43
0.0
10
-3.1999999999995365
20
-77.000000000000099
10
-3.1999999999994322
20
-107.00000000000009
42
0.99999999999999989
10
3.2000000000005713
20
-106.99999999999991
10
3.2000000000003626
20
-76.999999999999943
42
0.99999999999999989
0
LWPOLYLINE
5
127
100
AcDbEntity
8
0
100
AcDbPolyline
90
4
70
1
43
0.0
10
46.799999999996665
20
107.00000000000243
10
46.799999999997823
20
77.000000000002402
42
0.99999999999999989
10
53.199999999997615
20
77.000000000002572
10
53.199999999996955
20
107.00000000000257
42
0.99999999999999989
0
LWPOLYLINE
5
128
100
AcDbEntity
8
0
100
AcDbPolyline
90
8
70
1
43
0.0
10
-104.11000000000102
20
14.999999999999867
10
-104.11000000000102
20
-15.000000000000657
42
0.41421356237309814
10
-84.110000000000809
20
-35.000000000000654
10
84.110000000001207
20
-34.999999999998735
42
0.41421356237309198
10
104.11000000000099
20
-14.99999999999873
10
104.11000000000099
20
15.000000000000746
42
0.41421356237309659
10
84.110000000000881
20
35.000000000000746
10
-84.110000000001136
20
34.999999999999865
42
0.41421356237309342
0
CIRCLE
5
129
100
AcDbEntity
8
0
100
AcDbCircle
10
0
20
4.4408920985006262e-15
30
0
40
150
210
0
220
-0
230
1
0
ENDSEC
0
SECTION
2
OBJECTS
0
DICTIONARY
5
C
100
AcDbDictionary
3
ACAD_GROUP
350
D
3
ACAD_MLINESTYLE
350
17
0
DICTIONARY
5
D
100
AcDbDictionary
0
DICTIONARY
5
1A
330
C
100
AcDbDictionary
0
DICTIONARY
5
17
100
AcDbDictionary
0
ENDSEC
0
EOF
