0
SECTION
2
HEADER
9
$INSUNITS
70
4
9
$ACADVER
1
AC1014
9
$HANDSEED
5
FFFF
0
ENDSEC
0
SECTION
2
TABLES
0
TABLE
2
VPORT
5
8
100
AcDbSymbolTable
0
ENDTAB
0
TABLE
2
LTYPE
5
5
100
AcDbSymbolTable
0
LTYPE
5
14
100
AcDbSymbolTableRecord
100
AcDbLinetypeTableRecord
2
BYBLOCK
70
0
0
LTYPE
5
15
100
AcDbSymbolTableRecord
100
AcDbLinetypeTableRecord
2
BYLAYER
70
0
0
ENDTAB
0
TABLE
2
LAYER
5
2
100
AcDbSymbolTable
70
2
0
LAYER
5
50
100
AcDbSymbolTableRecord
100
AcDbLayerTableRecord
2
0
70
0
6
CONTINUOUS
0
ENDTAB
0
TABLE
2
STYLE
5
3
100
AcDbSymbolTable
70
1
0
STYLE
5
11
100
AcDbSymbolTableRecord
100
AcDbTextStyleTableRecord
2
STANDARD
70
0
0
ENDTAB
0
TABLE
2
VIEW
5
6
100
AcDbSymbolTable
70
0
0
ENDTAB
0
TABLE
2
UCS
5
7
100
AcDbSymbolTable
70
0
0
ENDTAB
0
TABLE
2
APPID
5
9
100
AcDbSymbolTable
70
2
0
APPID
5
12
100
AcDbSymbolTableRecord
100
AcDbRegAppTableRecord
2
ACAD
70
0
0
ENDTAB
0
TABLE
2
DIMSTYLE
5
A
100
AcDbSymbolTable
70
1
0
ENDTAB
0
TABLE
2
BLOCK_RECORD
5
1
100
AcDbSymbolTable
70
1
0
BLOCK_RECORD
5
1F
100
AcDbSymbolTableRecord
100
AcDbBlockTableRecord
2
*MODEL_SPACE
0
BLOCK_RECORD
5
1B
100
AcDbSymbolTableRecord
100
AcDbBlockTableRecord
2
*PAPER_SPACE
0
ENDTAB
0
ENDSEC
0
SECTION
2
BLOCKS
0
BLOCK
5
20
100
AcDbEntity
100
AcDbBlockBegin
2
*MODEL_SPACE
0
ENDBLK
5
21
100
AcDbEntity
100
AcDbBlockEnd
0
BLOCK
5
1C
100
AcDbEntity
100
AcDbBlockBegin
2
*PAPER_SPACE
0
ENDBLK
5
1D
100
AcDbEntity
100
AcDbBlockEnd
0
ENDSEC
0
SECTION
2
ENTITIES
0
LWPOLYLINE
5
100
100
AcDbEntity
8
0
100
AcDbPolyline
90
32
70
1
43
0.0
10
-189.83150423467652
20
98.500000000000014
42
-0.40193068649751645
10
-184.83593833376401
20
93.710526315789451
42
0.049393674859460911
10
-179.71808720078516
20
57.609122441092779
42
0.43106032920771886
10
-167.07987895351536
20
50.418554749511429
10
-117.59049301927483
20
65.548978436157398
42
-0.40708702973167582
10
-113.86671015132356
20
63.626891871481263
42
0.10159748563551987
10
-89.732428835234103
20
21.825090427853915
42
-0.40708702973167676
10
-89.929744475927421
20
17.639156583692817
10
-127.77776872570496
20
-17.65469700972875
42
0.43106032920772064
10
-127.86965856079883
20
-32.194990255973138
42
0.12034192736579195
10
-51.848428639986452
20
-76.085867814880572
42
0.43106032920771886
10
-39.302110227810509
20
-68.736142260217576
10
-27.660748543347392
20
-18.31186498015002
42
-0.40708702973167882
10
-24.134281316089492
20
-16.048017700665067
42
0.10159748563551974
10
24.13428131608952
20
-16.048017700665003
42
-0.40708702973167549
10
27.660748543347431
20
-18.311864980150006
10
39.302110227810452
20
-68.736142260217605
42
0.43106032920772164
10
51.848428639986494
20
-76.085867814880572
42
0.12034192736579161
10
127.86965856079871
20
-32.194990255973195
42
0.43106032920771808
10
127.77776872570485
20
-17.65469700972892
10
89.929744475927365
20
17.639156583692714
42
-0.40708702973167937
10
89.732428835234003
20
21.825090427853873
42
0.10159748563551987
10
113.86671015132352
20
63.62689187148117
42
-0.4070870297316766
10
117.59049301927482
20
65.548978436157284
10
167.07987895351533
20
50.418554749511266
42
0.43106032920772186
10
179.71808720078516
20
57.609122441092673
42
0.049393674859460911
10
184.83593833376403
20
93.71052631578948
42
-0.4019306864975164
10
189.83150423467652
20
98.500000000000014
10
194.83582832733822
20
98.500000000000057
42
-0.42628478834805994
10
199.83161879726998
20
93.294871794872023
42
-0.95978240555339056
10
-199.83161879726995
20
93.29487179487181
42
-0.42628478834806216
10
-194.83582832733822
20
98.500000000000014
0
CIRCLE
5
101
100
AcDbEntity
8
0
100
AcDbCircle
10
2.6734170432973769e-12
20
-33.499999999999957
30
0
40
3.5
210
0
220
0
230
1
0
CIRCLE
5
102
100
AcDbEntity
8
0
100
AcDbCircle
10
-116.91342951089794
20
33.999999999997819
30
0
40
3.499999999999996
210
0
220
0
230
1
0
CIRCLE
5
103
100
AcDbEntity
8
0
100
AcDbCircle
10
116.91342951090051
20
34.000000000002331
30
0
40
3.499999999999996
210
0
220
0
230
1
0
ENDSEC
0
SECTION
2
OBJECTS
0
DICTIONARY
5
C
100
AcDbDictionary
3
ACAD_GROUP
350
D
3
ACAD_MLINESTYLE
350
17
0
DICTIONARY
5
D
100
AcDbDictionary
0
DICTIONARY
5
1A
330
C
100
AcDbDictionary
0
DICTIONARY
5
17
100
AcDbDictionary
0
ENDSEC
0
EOF
