0
SECTION
2
HEADER
9
$INSUNITS
70
4
9
$ACADVER
1
AC1014
9
$HANDSEED
5
FFFF
0
ENDSEC
0
SECTION
2
TABLES
0
TABLE
2
VPORT
5
8
100
AcDbSymbolTable
0
ENDTAB
0
TABLE
2
LTYPE
5
5
100
AcDbSymbolTable
0
LTYPE
5
14
100
AcDbSymbolTableRecord
100
AcDbLinetypeTableRecord
2
BYBLOCK
70
0
0
LTYPE
5
15
100
AcDbSymbolTableRecord
100
AcDbLinetypeTableRecord
2
BYLAYER
70
0
0
ENDTAB
0
TABLE
2
LAYER
5
2
100
AcDbSymbolTable
70
2
0
LAYER
5
50
100
AcDbSymbolTableRecord
100
AcDbLayerTableRecord
2
0
70
0
6
CONTINUOUS
0
ENDTAB
0
TABLE
2
STYLE
5
3
100
AcDbSymbolTable
70
1
0
STYLE
5
11
100
AcDbSymbolTableRecord
100
AcDbTextStyleTableRecord
2
STANDARD
70
0
0
ENDTAB
0
TABLE
2
VIEW
5
6
100
AcDbSymbolTable
70
0
0
ENDTAB
0
TABLE
2
UCS
5
7
100
AcDbSymbolTable
70
0
0
ENDTAB
0
TABLE
2
APPID
5
9
100
AcDbSymbolTable
70
2
0
APPID
5
12
100
AcDbSymbolTableRecord
100
AcDbRegAppTableRecord
2
ACAD
70
0
0
ENDTAB
0
TABLE
2
DIMSTYLE
5
A
100
AcDbSymbolTable
70
1
0
ENDTAB
0
TABLE
2
BLOCK_RECORD
5
1
100
AcDbSymbolTable
70
1
0
BLOCK_RECORD
5
1F
100
AcDbSymbolTableRecord
100
AcDbBlockTableRecord
2
*MODEL_SPACE
0
BLOCK_RECORD
5
1B
100
AcDbSymbolTableRecord
100
AcDbBlockTableRecord
2
*PAPER_SPACE
0
ENDTAB
0
ENDSEC
0
SECTION
2
BLOCKS
0
BLOCK
5
20
100
AcDbEntity
100
AcDbBlockBegin
2
*MODEL_SPACE
0
ENDBLK
5
21
100
AcDbEntity
100
AcDbBlockEnd
0
BLOCK
5
1C
100
AcDbEntity
100
AcDbBlockBegin
2
*PAPER_SPACE
0
ENDBLK
5
1D
100
AcDbEntity
100
AcDbBlockEnd
0
ENDSEC
0
SECTION
2
ENTITIES
0
LWPOLYLINE
5
100
100
AcDbEntity
8
0
100
AcDbPolyline
90
8
70
1
43
0.0
10
-197.89999999999998
20
47.054999999999943
42
-0.41421356237309509
10
-192.89999999999998
20
52.054999999999943
10
-163.5
20
52.055000000000007
42
-0.41421356237309553
10
-158.49999999999997
20
47.054999999999943
10
-158.5
20
-56.055000000000035
42
-0.41421356237309553
10
-163.5
20
-61.055000000000035
10
-192.89999999999998
20
-61.055000000000035
42
-0.41421356237309509
10
-197.89999999999998
20
-56.055000000000035
0
CIRCLE
5
101
100
AcDbEntity
8
0
100
AcDbCircle
10
-165.49999999999997
20
-54.055000000000028
30
0
40
3.2000000000000028
210
0
220
0
230
1
0
CIRCLE
5
102
100
AcDbEntity
8
0
100
AcDbCircle
10
-190.89999999999998
20
-54.055000000000028
30
0
40
3.2000000000000028
210
0
220
0
230
1
0
CIRCLE
5
103
100
AcDbEntity
8
0
100
AcDbCircle
10
-190.89999999999998
20
45.054999999999936
30
0
40
3.2000000000000028
210
0
220
0
230
1
0
CIRCLE
5
104
100
AcDbEntity
8
0
100
AcDbCircle
10
-165.49999999999997
20
45.054999999999936
30
0
40
3.2000000000000028
210
0
220
0
230
1
0
LWPOLYLINE
5
105
100
AcDbEntity
8
0
100
AcDbPolyline
90
8
70
1
43
0.0
10
-104.09999999999994
20
55.05499999999995
42
-0.41421356237309342
10
-99.099999999999952
20
50.054999999999964
10
-99.100000000000037
20
-56.055000000000028
42
-0.41421356237309342
10
-104.10000000000002
20
-61.055000000000021
10
-133.49999999999997
20
-61.055000000000021
42
-0.41421356237309342
10
-138.49999999999997
20
-56.055000000000028
10
-138.49999999999994
20
50.054999999999964
42
-0.41421356237309342
10
-133.49999999999997
20
55.054999999999964
0
CIRCLE
5
106
100
AcDbEntity
8
0
100
AcDbCircle
10
-131.49999999999997
20
48.054999999999957
30
0
40
3.2000000000000028
210
0
220
0
230
1
0
CIRCLE
5
107
100
AcDbEntity
8
0
100
AcDbCircle
10
-131.49999999999997
20
-54.055000000000028
30
0
40
3.2000000000000028
210
0
220
0
230
1
0
CIRCLE
5
108
100
AcDbEntity
8
0
100
AcDbCircle
10
-106.09999999999994
20
-54.055000000000021
30
0
40
3.2000000000000028
210
0
220
0
230
1
0
CIRCLE
5
109
100
AcDbEntity
8
0
100
AcDbCircle
10
-106.09999999999994
20
48.05499999999995
30
0
40
3.2000000000000028
210
0
220
0
230
1
0
LWPOLYLINE
5
110
100
AcDbEntity
8
0
100
AcDbPolyline
90
8
70
1
43
0.0
10
-79.099999999999966
20
53.054999999999986
42
-0.41421356237309509
10
-74.099999999999966
20
58.054999999999986
10
-44.699999999999974
20
58.054999999999986
42
-0.41421356237309509
10
-39.699999999999974
20
53.054999999999986
10
-39.699999999999996
20
-56.055000000000007
42
-0.41421356237309509
10
-44.699999999999989
20
-61.055
10
-74.09999999999998
20
-61.055000000000007
42
-0.41421356237309509
10
-79.09999999999998
20
-56.055000000000007
0
CIRCLE
5
111
100
AcDbEntity
8
0
100
AcDbCircle
10
-72.099999999999994
20
51.054999999999993
30
0
40
3.2000000000000028
210
0
220
0
230
1
0
CIRCLE
5
112
100
AcDbEntity
8
0
100
AcDbCircle
10
-72.099999999999994
20
-54.055
30
0
40
3.2000000000000028
210
0
220
0
230
1
0
CIRCLE
5
113
100
AcDbEntity
8
0
100
AcDbCircle
10
-46.699999999999889
20
-54.054999999999993
30
0
40
3.2000000000000028
210
0
220
0
230
1
0
CIRCLE
5
114
100
AcDbEntity
8
0
100
AcDbCircle
10
-46.699999999999889
20
51.054999999999986
30
0
40
3.2000000000000028
210
0
220
0
230
1
0
CIRCLE
5
115
100
AcDbEntity
8
0
100
AcDbCircle
10
12.699999999999978
20
54.055000000000007
30
0
40
3.2000000000000028
210
0
220
0
230
1
0
CIRCLE
5
116
100
AcDbEntity
8
0
100
AcDbCircle
10
12.699999999999978
20
-54.054999999999993
30
0
40
3.2000000000000117
210
0
220
0
230
1
0
CIRCLE
5
117
100
AcDbEntity
8
0
100
AcDbCircle
10
-12.699999999999978
20
54.055
30
0
40
3.2000000000000117
210
0
220
0
230
1
0
CIRCLE
5
118
100
AcDbEntity
8
0
100
AcDbCircle
10
-12.699999999999978
20
-54.054999999999993
30
0
40
3.2000000000000028
210
0
220
0
230
1
0
LWPOLYLINE
5
119
100
AcDbEntity
8
0
100
AcDbPolyline
90
8
70
1
43
0.0
10
14.700000000000006
20
61.055000000000007
42
-0.41421356237309581
10
19.700000000000006
20
56.055000000000007
10
19.699999999999992
20
-56.055000000000007
42
-0.41421356237309526
10
14.700000000000006
20
-61.054999999999993
10
-14.699999999999971
20
-61.055000000000007
42
-0.41421356237309581
10
-19.699999999999971
20
-56.055000000000007
10
-19.699999999999985
20
56.055000000000007
42
-0.41421356237309526
10
-14.699999999999989
20
61.055
0
LWPOLYLINE
5
120
100
AcDbEntity
8
0
100
AcDbPolyline
90
8
70
1
43
0.0
10
74.099999999999994
20
64.055000000000021
42
-0.41421356237309603
10
79.099999999999994
20
59.055000000000028
10
79.09999999999998
20
-56.054999999999986
42
-0.41421356237309553
10
74.099999999999994
20
-61.054999999999978
10
44.699999999999989
20
-61.054999999999986
42
-0.41421356237309553
10
39.699999999999996
20
-56.054999999999986
10
39.699999999999996
20
59.055000000000028
42
-0.41421356237309553
10
44.699999999999989
20
64.055000000000021
0
CIRCLE
5
121
100
AcDbEntity
8
0
100
AcDbCircle
10
46.699999999999989
20
-54.054999999999978
30
0
40
3.2000000000000073
210
0
220
0
230
1
0
CIRCLE
5
122
100
AcDbEntity
8
0
100
AcDbCircle
10
72.099999999999994
20
-54.054999999999978
30
0
40
3.2000000000000073
210
0
220
0
230
1
0
CIRCLE
5
123
100
AcDbEntity
8
0
100
AcDbCircle
10
46.700000000000003
20
57.055000000000021
30
0
40
3.2000000000000073
210
0
220
0
230
1
0
CIRCLE
5
124
100
AcDbEntity
8
0
100
AcDbCircle
10
72.099999999999994
20
57.055000000000021
30
0
40
3.2000000000000073
210
0
220
0
230
1
0
LWPOLYLINE
5
125
100
AcDbEntity
8
0
100
AcDbPolyline
90
8
70
1
43
0.0
10
99.099999999999994
20
62.055000000000035
42
-0.41421356237309709
10
104.09999999999999
20
67.055000000000035
10
133.5
20
67.055000000000035
42
-0.41421356237309342
10
138.5
20
62.055000000000042
10
138.49999999999997
20
-56.054999999999957
42
-0.41421356237309243
10
133.5
20
-61.054999999999957
10
104.09999999999999
20
-61.054999999999964
42
-0.41421356237309509
10
99.099999999999994
20
-56.054999999999964
0
CIRCLE
5
126
100
AcDbEntity
8
0
100
AcDbCircle
10
131.5
20
60.055000000000035
30
0
40
3.2000000000000117
210
0
220
0
230
1
0
CIRCLE
5
127
100
AcDbEntity
8
0
100
AcDbCircle
10
131.5
20
-54.054999999999957
30
0
40
3.2000000000000117
210
0
220
0
230
1
0
CIRCLE
5
128
100
AcDbEntity
8
0
100
AcDbCircle
10
106.09999999999999
20
-54.054999999999957
30
0
40
3.2000000000000028
210
0
220
0
230
1
0
CIRCLE
5
129
100
AcDbEntity
8
0
100
AcDbCircle
10
106.09999999999999
20
60.055000000000035
30
0
40
3.2000000000000028
210
0
220
0
230
1
0
CIRCLE
5
130
100
AcDbEntity
8
0
100
AcDbCircle
10
190.90000000000001
20
-54.05499999999995
30
0
40
3.2000000000000028
210
0
220
0
230
1
0
CIRCLE
5
131
100
AcDbEntity
8
0
100
AcDbCircle
10
165.49999999999997
20
63.055000000000092
30
0
40
3.2000000000000028
210
0
220
0
230
1
0
CIRCLE
5
132
100
AcDbEntity
8
0
100
AcDbCircle
10
165.49999999999997
20
-54.054999999999964
30
0
40
3.2000000000000028
210
0
220
0
230
1
0
CIRCLE
5
133
100
AcDbEntity
8
0
100
AcDbCircle
10
190.90000000000001
20
63.055000000000092
30
0
40
3.2000000000000028
210
0
220
0
230
1
0
LWPOLYLINE
5
134
100
AcDbEntity
8
0
100
AcDbPolyline
90
8
70
1
43
0.0
10
158.5
20
65.055000000000092
42
-0.41421356237309448
10
163.5
20
70.055000000000092
10
192.89999999999998
20
70.055000000000078
42
-0.41421356237309448
10
197.89999999999998
20
65.055000000000092
10
197.89999999999998
20
-56.054999999999936
42
-0.41421356237309448
10
192.89999999999998
20
-61.054999999999936
10
163.5
20
-61.054999999999978
42
-0.41421356237309553
10
158.5
20
-56.05499999999995
0
ENDSEC
0
SECTION
2
OBJECTS
0
DICTIONARY
5
C
100
AcDbDictionary
3
ACAD_GROUP
350
D
3
ACAD_MLINESTYLE
350
17
0
DICTIONARY
5
D
100
AcDbDictionary
0
DICTIONARY
5
1A
330
C
100
AcDbDictionary
0
DICTIONARY
5
17
100
AcDbDictionary
0
ENDSEC
0
EOF
