0
SECTION
2
HEADER
9
$INSUNITS
70
4
9
$ACADVER
1
AC1014
9
$HANDSEED
5
FFFF
0
ENDSEC
0
SECTION
2
TABLES
0
TABLE
2
VPORT
5
8
100
AcDbSymbolTable
0
ENDTAB
0
TABLE
2
LTYPE
5
5
100
AcDbSymbolTable
0
LTYPE
5
14
100
AcDbSymbolTableRecord
100
AcDbLinetypeTableRecord
2
BYBLOCK
70
0
0
LTYPE
5
15
100
AcDbSymbolTableRecord
100
AcDbLinetypeTableRecord
2
BYLAYER
70
0
0
ENDTAB
0
TABLE
2
LAYER
5
2
100
AcDbSymbolTable
70
2
0
LAYER
5
50
100
AcDbSymbolTableRecord
100
AcDbLayerTableRecord
2
0
70
0
6
CONTINUOUS
0
ENDTAB
0
TABLE
2
STYLE
5
3
100
AcDbSymbolTable
70
1
0
STYLE
5
11
100
AcDbSymbolTableRecord
100
AcDbTextStyleTableRecord
2
STANDARD
70
0
0
ENDTAB
0
TABLE
2
VIEW
5
6
100
AcDbSymbolTable
70
0
0
ENDTAB
0
TABLE
2
UCS
5
7
100
AcDbSymbolTable
70
0
0
ENDTAB
0
TABLE
2
APPID
5
9
100
AcDbSymbolTable
70
2
0
APPID
5
12
100
AcDbSymbolTableRecord
100
AcDbRegAppTableRecord
2
ACAD
70
0
0
ENDTAB
0
TABLE
2
DIMSTYLE
5
A
100
AcDbSymbolTable
70
1
0
ENDTAB
0
TABLE
2
BLOCK_RECORD
5
1
100
AcDbSymbolTable
70
1
0
BLOCK_RECORD
5
1F
100
AcDbSymbolTableRecord
100
AcDbBlockTableRecord
2
*MODEL_SPACE
0
BLOCK_RECORD
5
1B
100
AcDbSymbolTableRecord
100
AcDbBlockTableRecord
2
*PAPER_SPACE
0
ENDTAB
0
ENDSEC
0
SECTION
2
BLOCKS
0
BLOCK
5
20
100
AcDbEntity
100
AcDbBlockBegin
2
*MODEL_SPACE
0
ENDBLK
5
21
100
AcDbEntity
100
AcDbBlockEnd
0
BLOCK
5
1C
100
AcDbEntity
100
AcDbBlockBegin
2
*PAPER_SPACE
0
ENDBLK
5
1D
100
AcDbEntity
100
AcDbBlockEnd
0
ENDSEC
0
SECTION
2
ENTITIES
0
LWPOLYLINE
5
100
100
AcDbEntity
8
0
100
AcDbPolyline
90
8
70
1
43
0.0
10
-197.89999999999998
20
31.599999999999948
42
-0.41421356237309404
10
-192.89999999999998
20
36.599999999999952
10
-163.5
20
36.599999999999994
42
-0.41421356237309448
10
-158.49999999999997
20
31.599999999999948
10
-158.5
20
-40.600000000000037
42
-0.41421356237309509
10
-163.5
20
-45.600000000000037
10
-192.89999999999998
20
-45.60000000000003
42
-0.41421356237309448
10
-197.89999999999998
20
-40.600000000000037
0
CIRCLE
5
101
100
AcDbEntity
8
0
100
AcDbCircle
10
-165.49999999999997
20
-38.600000000000037
30
0
40
3.2000000000000028
210
0
220
0
230
1
0
CIRCLE
5
102
100
AcDbEntity
8
0
100
AcDbCircle
10
-190.89999999999998
20
-38.600000000000037
30
0
40
3.2000000000000028
210
0
220
0
230
1
0
CIRCLE
5
103
100
AcDbEntity
8
0
100
AcDbCircle
10
-190.89999999999998
20
29.599999999999937
30
0
40
3.2000000000000028
210
0
220
0
230
1
0
CIRCLE
5
104
100
AcDbEntity
8
0
100
AcDbCircle
10
-165.49999999999997
20
29.599999999999937
30
0
40
3.2000000000000028
210
0
220
0
230
1
0
LWPOLYLINE
5
105
100
AcDbEntity
8
0
100
AcDbPolyline
90
8
70
1
43
0.0
10
-104.09999999999998
20
39.599999999999966
42
-0.41421356237309298
10
-99.09999999999998
20
34.599999999999966
10
-99.100000000000037
20
-40.60000000000003
42
-0.41421356237309404
10
-104.10000000000002
20
-45.600000000000023
10
-133.49999999999997
20
-45.60000000000003
42
-0.41421356237309509
10
-138.49999999999997
20
-40.60000000000003
10
-138.49999999999997
20
34.599999999999966
42
-0.41421356237309298
10
-133.49999999999997
20
39.599999999999966
0
CIRCLE
5
106
100
AcDbEntity
8
0
100
AcDbCircle
10
-131.49999999999997
20
32.599999999999966
30
0
40
3.2000000000000028
210
0
220
0
230
1
0
CIRCLE
5
107
100
AcDbEntity
8
0
100
AcDbCircle
10
-131.49999999999997
20
-38.600000000000037
30
0
40
3.2000000000000028
210
0
220
0
230
1
0
CIRCLE
5
108
100
AcDbEntity
8
0
100
AcDbCircle
10
-106.10000000000001
20
-38.600000000000037
30
0
40
3.2000000000000028
210
0
220
0
230
1
0
CIRCLE
5
109
100
AcDbEntity
8
0
100
AcDbCircle
10
-106.09999999999998
20
32.599999999999966
30
0
40
3.2000000000000028
210
0
220
0
230
1
0
LWPOLYLINE
5
110
100
AcDbEntity
8
0
100
AcDbPolyline
90
8
70
1
43
0.0
10
-79.099999999999966
20
37.599999999999987
42
-0.41421356237309526
10
-74.099999999999966
20
42.599999999999987
10
-44.699999999999974
20
42.599999999999994
42
-0.41421356237309526
10
-39.699999999999974
20
37.599999999999987
10
-39.700000000000003
20
-40.600000000000016
42
-0.41421356237309553
10
-44.699999999999989
20
-45.600000000000009
10
-74.09999999999998
20
-45.600000000000023
42
-0.41421356237309553
10
-79.09999999999998
20
-40.600000000000016
0
CIRCLE
5
111
100
AcDbEntity
8
0
100
AcDbCircle
10
-72.099999999999966
20
35.599999999999987
30
0
40
3.2000000000000028
210
0
220
0
230
1
0
CIRCLE
5
112
100
AcDbEntity
8
0
100
AcDbCircle
10
-72.099999999999994
20
-38.600000000000009
30
0
40
3.2000000000000028
210
0
220
0
230
1
0
CIRCLE
5
113
100
AcDbEntity
8
0
100
AcDbCircle
10
-46.699999999999982
20
-38.600000000000009
30
0
40
3.2000000000000028
210
0
220
0
230
1
0
CIRCLE
5
114
100
AcDbEntity
8
0
100
AcDbCircle
10
-46.699999999999946
20
35.599999999999987
30
0
40
3.2000000000000028
210
0
220
0
230
1
0
CIRCLE
5
115
100
AcDbEntity
8
0
100
AcDbCircle
10
12.699999999999978
20
38.600000000000001
30
0
40
3.2000000000000028
210
0
220
0
230
1
0
CIRCLE
5
116
100
AcDbEntity
8
0
100
AcDbCircle
10
12.699999999999987
20
-38.600000000000001
30
0
40
3.2000000000000117
210
0
220
0
230
1
0
CIRCLE
5
117
100
AcDbEntity
8
0
100
AcDbCircle
10
-12.699999999999987
20
38.600000000000001
30
0
40
3.2000000000000117
210
0
220
0
230
1
0
CIRCLE
5
118
100
AcDbEntity
8
0
100
AcDbCircle
10
-12.699999999999978
20
-38.599999999999994
30
0
40
3.2000000000000028
210
0
220
0
230
1
0
LWPOLYLINE
5
119
100
AcDbEntity
8
0
100
AcDbPolyline
90
8
70
1
43
0.0
10
14.700000000000006
20
45.600000000000009
42
-0.41421356237309526
10
19.700000000000006
20
40.600000000000009
10
19.700000000000003
20
-40.600000000000009
42
-0.41421356237309526
10
14.700000000000006
20
-45.599999999999994
10
-14.699999999999989
20
-45.600000000000009
42
-0.41421356237309526
10
-19.699999999999989
20
-40.600000000000009
10
-19.700000000000003
20
40.600000000000009
42
-0.41421356237309526
10
-14.699999999999998
20
45.600000000000009
0
LWPOLYLINE
5
120
100
AcDbEntity
8
0
100
AcDbPolyline
90
8
70
1
43
0.0
10
74.099999999999994
20
48.600000000000023
42
-0.41421356237309553
10
79.099999999999994
20
43.60000000000003
10
79.099999999999994
20
-40.599999999999987
42
-0.41421356237309509
10
74.099999999999994
20
-45.59999999999998
10
44.699999999999989
20
-45.59999999999998
42
-0.41421356237309509
10
39.699999999999996
20
-40.599999999999987
10
39.699999999999989
20
43.60000000000003
42
-0.41421356237309509
10
44.699999999999989
20
48.60000000000003
0
CIRCLE
5
121
100
AcDbEntity
8
0
100
AcDbCircle
10
46.699999999999989
20
-38.599999999999987
30
0
40
3.2000000000000073
210
0
220
0
230
1
0
CIRCLE
5
122
100
AcDbEntity
8
0
100
AcDbCircle
10
72.099999999999994
20
-38.599999999999987
30
0
40
3.2000000000000073
210
0
220
0
230
1
0
CIRCLE
5
123
100
AcDbEntity
8
0
100
AcDbCircle
10
46.700000000000003
20
41.60000000000003
30
0
40
3.2000000000000073
210
0
220
0
230
1
0
CIRCLE
5
124
100
AcDbEntity
8
0
100
AcDbCircle
10
72.099999999999994
20
41.60000000000003
30
0
40
3.2000000000000073
210
0
220
0
230
1
0
LWPOLYLINE
5
125
100
AcDbEntity
8
0
100
AcDbPolyline
90
8
70
1
43
0.0
10
99.099999999999994
20
46.600000000000051
42
-0.41421356237309448
10
104.09999999999999
20
51.600000000000051
10
133.5
20
51.600000000000044
42
-0.41421356237309342
10
138.5
20
46.600000000000051
10
138.49999999999997
20
-40.599999999999966
42
-0.41421356237309243
10
133.5
20
-45.599999999999959
10
104.09999999999999
20
-45.599999999999959
42
-0.41421356237309448
10
99.099999999999994
20
-40.599999999999966
0
CIRCLE
5
126
100
AcDbEntity
8
0
100
AcDbCircle
10
131.5
20
44.600000000000037
30
0
40
3.2000000000000117
210
0
220
0
230
1
0
CIRCLE
5
127
100
AcDbEntity
8
0
100
AcDbCircle
10
131.5
20
-38.599999999999952
30
0
40
3.2000000000000117
210
0
220
0
230
1
0
CIRCLE
5
128
100
AcDbEntity
8
0
100
AcDbCircle
10
106.09999999999999
20
-38.599999999999952
30
0
40
3.2000000000000028
210
0
220
0
230
1
0
CIRCLE
5
129
100
AcDbEntity
8
0
100
AcDbCircle
10
106.09999999999999
20
44.600000000000037
30
0
40
3.2000000000000028
210
0
220
0
230
1
0
CIRCLE
5
130
100
AcDbEntity
8
0
100
AcDbCircle
10
190.89999999999998
20
-38.599999999999959
30
0
40
3.2000000000000028
210
0
220
0
230
1
0
CIRCLE
5
131
100
AcDbEntity
8
0
100
AcDbCircle
10
165.5
20
47.600000000000065
30
0
40
3.2000000000000028
210
0
220
0
230
1
0
CIRCLE
5
132
100
AcDbEntity
8
0
100
AcDbCircle
10
165.49999999999997
20
-38.599999999999959
30
0
40
3.2000000000000028
210
0
220
0
230
1
0
CIRCLE
5
133
100
AcDbEntity
8
0
100
AcDbCircle
10
190.90000000000003
20
47.600000000000065
30
0
40
3.2000000000000028
210
0
220
0
230
1
0
LWPOLYLINE
5
134
100
AcDbEntity
8
0
100
AcDbPolyline
90
8
70
1
43
0.0
10
158.5
20
49.60000000000008
42
-0.41421356237309509
10
163.5
20
54.60000000000008
10
192.89999999999998
20
54.600000000000072
42
-0.41421356237309448
10
197.89999999999998
20
49.60000000000008
10
197.89999999999998
20
-40.599999999999952
42
-0.41421356237309448
10
192.89999999999998
20
-45.599999999999945
10
163.5
20
-45.599999999999966
42
-0.41421356237309509
10
158.5
20
-40.599999999999952
0
ENDSEC
0
SECTION
2
OBJECTS
0
DICTIONARY
5
C
100
AcDbDictionary
3
ACAD_GROUP
350
D
3
ACAD_MLINESTYLE
350
17
0
DICTIONARY
5
D
100
AcDbDictionary
0
DICTIONARY
5
1A
330
C
100
AcDbDictionary
0
DICTIONARY
5
17
100
AcDbDictionary
0
ENDSEC
0
EOF
