0
SECTION
2
HEADER
9
$INSUNITS
70
4
9
$ACADVER
1
AC1014
9
$HANDSEED
5
FFFF
0
ENDSEC
0
SECTION
2
TABLES
0
TABLE
2
VPORT
5
8
100
AcDbSymbolTable
0
ENDTAB
0
TABLE
2
LTYPE
5
5
100
AcDbSymbolTable
0
LTYPE
5
14
100
AcDbSymbolTableRecord
100
AcDbLinetypeTableRecord
2
BYBLOCK
70
0
0
LTYPE
5
15
100
AcDbSymbolTableRecord
100
AcDbLinetypeTableRecord
2
BYLAYER
70
0
0
ENDTAB
0
TABLE
2
LAYER
5
2
100
AcDbSymbolTable
70
2
0
LAYER
5
50
100
AcDbSymbolTableRecord
100
AcDbLayerTableRecord
2
0
70
0
6
CONTINUOUS
0
ENDTAB
0
TABLE
2
STYLE
5
3
100
AcDbSymbolTable
70
1
0
STYLE
5
11
100
AcDbSymbolTableRecord
100
AcDbTextStyleTableRecord
2
STANDARD
70
0
0
ENDTAB
0
TABLE
2
VIEW
5
6
100
AcDbSymbolTable
70
0
0
ENDTAB
0
TABLE
2
UCS
5
7
100
AcDbSymbolTable
70
0
0
ENDTAB
0
TABLE
2
APPID
5
9
100
AcDbSymbolTable
70
2
0
APPID
5
12
100
AcDbSymbolTableRecord
100
AcDbRegAppTableRecord
2
ACAD
70
0
0
ENDTAB
0
TABLE
2
DIMSTYLE
5
A
100
AcDbSymbolTable
70
1
0
ENDTAB
0
TABLE
2
BLOCK_RECORD
5
1
100
AcDbSymbolTable
70
1
0
BLOCK_RECORD
5
1F
100
AcDbSymbolTableRecord
100
AcDbBlockTableRecord
2
*MODEL_SPACE
0
BLOCK_RECORD
5
1B
100
AcDbSymbolTableRecord
100
AcDbBlockTableRecord
2
*PAPER_SPACE
0
ENDTAB
0
ENDSEC
0
SECTION
2
BLOCKS
0
BLOCK
5
20
100
AcDbEntity
100
AcDbBlockBegin
2
*MODEL_SPACE
0
ENDBLK
5
21
100
AcDbEntity
100
AcDbBlockEnd
0
BLOCK
5
1C
100
AcDbEntity
100
AcDbBlockBegin
2
*PAPER_SPACE
0
ENDBLK
5
1D
100
AcDbEntity
100
AcDbBlockEnd
0
ENDSEC
0
SECTION
2
ENTITIES
0
CIRCLE
5
100
100
AcDbEntity
8
0
100
AcDbCircle
10
20
20
20
30
0
40
3.1999999999999984
210
0
220
0
230
1
0
LWPOLYLINE
5
101
100
AcDbEntity
8
0
100
AcDbPolyline
90
4
70
1
43
0.0
10
-3.4999999999877396
20
-47
10
-3.500000000000024
20
-107.00000000000068
42
0.99999999999999989
10
3.5000000000010587
20
-106.9999999999993
10
3.5000000000122613
20
-46.999999999999993
42
0.99999999999999989
0
LWPOLYLINE
5
102
100
AcDbEntity
8
0
100
AcDbPolyline
90
4
70
1
43
0.0
10
42.453193977847988
20
20.468911086789944
10
94.414718204935582
20
50.46891108675473
42
0.99999999999999989
10
90.91471820493436
20
56.531088913245178
10
38.953193977847747
20
26.531088913280868
42
0.99999999999999989
0
LWPOLYLINE
5
103
100
AcDbEntity
8
0
100
AcDbPolyline
90
4
70
1
43
0.0
10
-38.953193977889249
20
26.531088913209796
10
-90.914718204935539
20
56.531088913245888
42
0.99999999999999989
10
-94.414718204934317
20
50.468911086754119
10
-42.453193977889477
20
20.468911086718858
42
0.99999999999999989
0
LWPOLYLINE
5
104
100
AcDbEntity
8
0
100
AcDbPolyline
90
4
70
1
43
0.0
10
-20.468911086790765
20
42.453193977847981
10
-50.468911086754801
20
94.414718204935539
42
0.99999999999999989
10
-56.531088913245569
20
90.914718204934317
10
-26.531088913281692
20
38.953193977847739
42
0.99999999999999989
0
LWPOLYLINE
5
105
100
AcDbEntity
8
0
100
AcDbPolyline
90
4
70
1
43
0.0
10
47
20
-3.4999999999877418
10
107.00000000000068
20
-3.500000000000032
42
0.99999999999999989
10
106.9999999999993
20
3.4999999999999458
10
46.999999999999993
20
3.5000000000122586
42
0.99999999999999989
0
LWPOLYLINE
5
106
100
AcDbEntity
8
0
100
AcDbPolyline
90
4
70
1
43
0.0
10
-26.531088913210979
20
-38.953193977889242
10
-56.531088913245917
20
-90.914718204935511
42
0.99999999999999989
10
-50.468911086754147
20
-94.414718204934317
10
-20.468911086720041
20
-42.453193977889477
42
0.99999999999999989
0
CIRCLE
5
107
100
AcDbEntity
8
0
100
AcDbCircle
10
20
20
-20
30
0
40
3.1999999999999984
210
0
220
0
230
1
0
CIRCLE
5
108
100
AcDbEntity
8
0
100
AcDbCircle
10
-20
20
20
30
0
40
3.2000000000000006
210
0
220
0
230
1
0
LWPOLYLINE
5
109
100
AcDbEntity
8
0
100
AcDbPolyline
90
4
70
1
43
0.0
10
20.468911086786939
20
-42.453193977847981
10
50.46891108675478
20
-94.414718204935554
42
0.99999999999999989
10
56.531088913245156
20
-90.914718204934331
10
26.531088913277877
20
-38.953193977847732
42
0.99999999999999989
0
LWPOLYLINE
5
110
100
AcDbEntity
8
0
100
AcDbPolyline
90
4
70
1
43
0.0
10
26.531088913209814
20
38.953193977889242
10
56.531088913245924
20
90.914718204935511
42
0.99999999999999989
10
50.46891108675419
20
94.414718204934275
10
20.46891108674312
20
42.45319397788947
42
0.99999999999999989
0
LWPOLYLINE
5
111
100
AcDbEntity
8
0
100
AcDbPolyline
90
4
70
1
43
0.0
10
-47
20
3.4999999999877351
10
-107.00000000000068
20
3.5000000000000178
42
0.99999999999999989
10
-106.9999999999993
20
-3.5000000000010933
10
-46.999999999999993
20
-3.5000000000122657
42
0.99999999999999989
0
LWPOLYLINE
5
112
100
AcDbEntity
8
0
100
AcDbPolyline
90
4
70
1
43
0.0
10
3.5000000000000004
20
47
10
3.4999999999999987
20
107.00000000000068
42
0.99999999999999989
10
-3.4999999999999987
20
106.9999999999993
10
-3.5
20
46.999999999999993
42
0.99999999999999989
0
LWPOLYLINE
5
113
100
AcDbEntity
8
0
100
AcDbPolyline
90
4
70
1
43
0.0
10
38.953193977889242
20
-26.531088913209814
10
90.914718204935511
20
-56.531088913245924
42
0.99999999999999989
10
94.414718204934275
20
-50.468911086754161
10
42.45319397788947
20
-20.468911086706328
42
0.99999999999999989
0
LINE
5
114
100
AcDbEntity
8
0
100
AcDbLine
10
-94.414718204935554
20
-50.46891108675478
30
0
11
-42.453193977847981
21
-20.468911086803665
31
0
0
ARC
5
115
100
AcDbEntity
8
0
100
AcDbCircle
10
-40.703193977848088
20
-23.500000000049262
30
0
40
3.4999999999888147
210
-0
220
0
230
1
100
AcDbArc
50
-59.99999999988772
51
119.99999999999798
0
LINE
5
116
100
AcDbEntity
8
0
100
AcDbLine
10
-38.953193977847739
20
-26.531088913281682
30
0
11
-90.914718250101089
21
-56.53108893932216
31
0
0
ARC
5
117
100
AcDbEntity
8
0
100
AcDbCircle
10
-92.664718204934942
20
-53.499999999999957
30
0
40
3.4999999999999991
210
0
220
0
230
1
100
AcDbArc
50
120.0000000000116
51
299.99999914623783
0
CIRCLE
5
118
100
AcDbEntity
8
0
100
AcDbCircle
10
-20
20
-20
30
0
40
3.2000000000000006
210
0
220
0
230
1
0
CIRCLE
5
119
100
AcDbEntity
8
0
100
AcDbCircle
10
116.91342951089928
20
67.499999999999901
30
0
40
3.499999999999996
210
0
220
0
230
1
0
CIRCLE
5
120
100
AcDbEntity
8
0
100
AcDbCircle
10
-116.91342951089923
20
-67.499999999999986
30
0
40
3.499999999999996
210
0
220
0
230
1
0
CIRCLE
5
121
100
AcDbEntity
8
0
100
AcDbCircle
10
116.91342951089916
20
-67.500000000000043
30
0
40
3.499999999999996
210
0
220
0
230
1
0
CIRCLE
5
122
100
AcDbEntity
8
0
100
AcDbCircle
10
0
20
135
30
0
40
3.5000000000000004
210
0
220
0
230
1
0
CIRCLE
5
123
100
AcDbEntity
8
0
100
AcDbCircle
10
-116.91342951089922
20
67.500000000000014
30
0
40
3.499999999999996
210
0
220
0
230
1
0
CIRCLE
5
124
100
AcDbEntity
8
0
100
AcDbCircle
10
-1.7763568394002505e-14
20
-135
30
0
40
3.5000000000000004
210
0
220
0
230
1
0
CIRCLE
5
125
100
AcDbEntity
8
0
100
AcDbCircle
10
0
20
0
30
0
40
150
210
0
220
-0
230
1
0
ENDSEC
0
SECTION
2
OBJECTS
0
DICTIONARY
5
C
100
AcDbDictionary
3
ACAD_GROUP
350
D
3
ACAD_MLINESTYLE
350
17
0
DICTIONARY
5
D
100
AcDbDictionary
0
DICTIONARY
5
1A
330
C
100
AcDbDictionary
0
DICTIONARY
5
17
100
AcDbDictionary
0
ENDSEC
0
EOF
